<svg width="26" height="26" viewBox="0 0 26 26" fill="none" xmlns="http://www.w3.org/2000/svg">
<path fill-rule="evenodd" clip-rule="evenodd" d="M12.9998 1.86865C6.85216 1.86865 1.86853 6.85229 1.86853 12.9999C1.86853 19.1475 6.85216 24.1311 12.9998 24.1311C19.1473 24.1311 24.131 19.1475 24.131 12.9999C24.131 6.85229 19.1473 1.86865 12.9998 1.86865ZM2.81853 12.9999C2.81853 7.37696 7.37683 2.81865 12.9998 2.81865C18.6227 2.81865 23.181 7.37696 23.181 12.9999C23.181 18.6228 18.6227 23.1811 12.9998 23.1811C7.37684 23.1811 2.81853 18.6228 2.81853 12.9999ZM17.3089 9.38785C17.4678 9.16202 17.4136 8.85012 17.1877 8.6912C16.9619 8.53228 16.65 8.58652 16.4911 8.81236L11.3475 16.1217L9.02342 13.7546C8.82996 13.5575 8.51339 13.5546 8.31635 13.7481C8.1193 13.9415 8.1164 14.2581 8.30986 14.4552L11.0543 17.2504C11.1583 17.3563 11.3039 17.4105 11.4518 17.3984C11.5997 17.3864 11.7346 17.3092 11.82 17.1878L17.3089 9.38785Z" fill="black"/>
</svg>
