<svg width="128" height="128" viewBox="0 0 128 128" fill="none" xmlns="http://www.w3.org/2000/svg">
<path d="M83.57 73.88C83.69 65.66 75.22 59.88 64.29 58.74C57.87 58.09 54.38 56.26 54.38 52.02C54.38 47.97 58.5 44.96 63.09 45.21C71.43 45.68 72.64 50.84 72.64 53.99C72.64 53.99 81.72 54.09 81.72 53.99C81.72 46.32 77.3 39.57 68.27 37.58V28.5H59.27V37.26C49.94 38.74 44.77 46.26 44.68 52.66C44.55 61.13 51.63 65.84 63.38 67.54C70.68 68.54 73.93 71.33 73.86 75.03C73.8 79.03 71.19 82.86 63.67 82.86C56.53 82.86 53.6 78.45 53.6 73.8H43.8C43.8 82.14 48.26 88.26 59.22 89.68V98.42H68.22V89.77C80.94 88.16 83.49 78.6 83.57 73.88Z" fill="black"/>
<path d="M20.41 64.0001C20.4103 54.8687 23.2781 45.968 28.6088 38.5541C33.9396 31.1403 41.4639 25.5877 50.12 22.6801V13.0901C38.9522 16.1364 29.0958 22.7703 22.0695 31.9699C15.0432 41.1695 11.2369 52.4242 11.2369 64.0001C11.2369 75.576 15.0432 86.8307 22.0695 96.0303C29.0958 105.23 38.9522 111.864 50.12 114.91V105.32C41.4639 102.412 33.9396 96.8599 28.6088 89.446C23.2781 82.0322 20.4103 73.1315 20.41 64.0001V64.0001Z" fill="black"/>
<path d="M77.37 12.9399V22.4999C86.1468 25.3341 93.7991 30.8779 99.2271 38.3346C104.655 45.7913 107.579 54.7769 107.579 63.9999C107.579 73.223 104.655 82.2086 99.2271 89.6653C93.7991 97.122 86.1468 102.666 77.37 105.5V115.06C88.6545 112.098 98.6398 105.481 105.766 96.2428C112.891 87.0049 116.756 75.6668 116.756 63.9999C116.756 52.3331 112.891 40.9949 105.766 31.7571C98.6398 22.5193 88.6545 15.9022 77.37 12.9399V12.9399Z" fill="black"/>
</svg>
