<?xml version="1.0" encoding="UTF-8"?>
<svg id="Layer_2" data-name="Layer 2" xmlns="http://www.w3.org/2000/svg" viewBox="0 0 1176.33 169.44">
  <defs>
    <style>
      .cls-1 {
        fill: lime;
      }

      .cls-1, .cls-2 {
        stroke-width: 0px;
      }

      .cls-2 {
        fill: #fff;
      }
    </style>
  </defs>
  <g id="Layer_1-2" data-name="Layer 1">
    <g>
      <path class="cls-2" d="M0,55.32c2.97-1.63,6.89-3.31,11.74-5.03,4.85-1.72,10.17-3.23,15.97-4.54,5.79-1.31,11.62-2.37,17.49-3.19,5.87-.82,11.31-1.23,16.32-1.23,10.64,0,19.72,1.43,27.24,4.3,7.51,2.87,13.27,7.49,17.26,13.87,3.99,6.38,5.99,15.06,5.99,26.03v83.48h-35v-76.11c0-3.11-.43-5.97-1.29-8.59-.86-2.62-2.15-4.87-3.87-6.75-1.72-1.88-4.07-3.35-7.04-4.42-2.97-1.06-6.57-1.6-10.79-1.6-3.6,0-7.2.45-10.79,1.35-3.6.9-6.34,1.84-8.21,2.82v93.3H0V55.32Z"/>
      <path class="cls-2" d="M189.97,168.53c-20.01,0-35.06-5.42-45.14-16.26-10.08-10.83-15.13-26.77-15.13-47.82,0-22.62,5.12-38.88,15.36-48.77,10.24-9.89,25.21-14.83,44.91-14.83,13.29,0,24.43,2.25,33.42,6.76,8.99,4.51,15.79,11.43,20.4,20.76,4.61,9.34,6.92,21.36,6.92,36.07,0,21.04-5.24,36.98-15.71,47.82-10.48,10.84-25.49,16.26-45.03,16.26ZM189.97,140.29c5.78,0,10.59-1.38,14.42-4.15,3.83-2.77,6.72-6.8,8.68-12.1,1.95-5.3,2.93-11.82,2.93-19.58,0-8.86-.98-15.86-2.93-21-1.96-5.14-4.89-8.86-8.79-11.15-3.91-2.29-8.68-3.44-14.31-3.44-5.94,0-10.79,1.19-14.54,3.56-3.75,2.37-6.53,6.13-8.33,11.27-1.8,5.14-2.7,12.07-2.7,20.76,0,12.03,2.07,21,6.21,26.93,4.14,5.93,10.59,8.9,19.35,8.9Z"/>
      <path class="cls-2" d="M379,85.52v83.48h-35v-76.11c0-3.11-.43-5.97-1.28-8.59-.85-2.62-2.13-4.87-3.84-6.75-1.71-1.88-4.03-3.35-6.98-4.42-2.95-1.06-6.51-1.6-10.7-1.6-3.57,0-6.86.45-9.88,1.35-3.02.9-5.47,1.84-7.33,2.82v93.3h-35V55.32c2.96-1.63,6.86-3.31,11.7-5.03,4.83-1.72,10.14-3.23,15.92-4.54,5.77-1.31,11.58-2.37,17.44-3.19,5.85-.82,11.27-1.23,16.27-1.23,10.61,0,19.54,1.43,26.8,4.3,7.26,2.87,12.71,7.49,16.38,13.87,3.66,6.38,5.5,15.06,5.5,26.03ZM343.3,63.67c4.85-4.42,10.73-8.31,17.62-11.66,6.89-3.35,14.17-5.97,21.85-7.86,7.67-1.88,14.8-2.82,21.38-2.82,10.65,0,19.61,1.43,26.9,4.3,7.28,2.87,12.76,7.49,16.44,13.87,3.68,6.38,5.52,15.06,5.52,26.03v83.48h-35v-76.11c0-3.11-.43-5.97-1.29-8.59-.86-2.62-2.15-4.87-3.88-6.75-1.72-1.88-4.07-3.35-7.05-4.42-2.98-1.06-6.58-1.6-10.81-1.6-3.6,0-6.93.53-9.98,1.6-3.05,1.07-5.52,2.42-7.4,4.05l-34.3-13.5Z"/>
      <path class="cls-2" d="M655.03,168.77c-6.52,0-13.01-.44-19.45-1.31-6.44-.87-12.27-2.46-17.47-4.77-5.2-2.3-9.36-5.48-12.46-9.53-3.11-4.05-4.66-9.33-4.66-15.85V0h34v65.79l-6.52-11.2c2.79-3.34,6.36-6,10.71-7.99,4.34-1.99,8.77-3.37,13.27-4.17,4.5-.79,8.23-1.19,11.18-1.19,17.39,0,30.62,5.36,39.71,16.09,9.08,10.73,13.62,26.42,13.62,47.08,0,12.08-1.55,22.25-4.66,30.51-3.11,8.26-7.45,14.86-13.04,19.79-5.59,4.93-12.11,8.5-19.56,10.73-7.45,2.22-15.68,3.34-24.68,3.34ZM654.7,138.97c6.88,0,12.35-1.39,16.42-4.17,4.06-2.78,7-6.63,8.79-11.56,1.8-4.92,2.7-10.57,2.7-16.93,0-9.06-1.17-16.29-3.52-21.69-2.35-5.4-5.55-9.3-9.62-11.68-4.07-2.38-8.76-3.58-14.07-3.58-3.13,0-6.57.4-10.32,1.19-3.75.8-7.12,2.07-10.08,3.81v53.4c0,2.86.86,5.09,2.58,6.67,1.72,1.59,4.1,2.74,7.15,3.46,3.05.71,6.37,1.07,9.97,1.07Z"/>
      <path class="cls-2" d="M522.06,168.86c-7.25,0-14.07-.68-20.46-2.04-6.39-1.36-11.98-3.6-16.79-6.73-4.81-3.12-8.55-7.36-11.23-12.73-2.68-5.36-4.02-12.05-4.02-20.06,0-7.52,1.54-14.09,4.61-19.7,3.07-5.6,7.76-9.93,14.07-12.97,6.3-3.04,14.27-4.56,23.89-4.56,5.36,0,10.56.56,15.61,1.68,5.04,1.12,9.58,2.64,13.6,4.56,4.02,1.92,7.21,4,9.58,6.25l1.42,17.29c-3.16-1.92-6.94-3.44-11.35-4.56-4.42-1.12-9.15-1.68-14.19-1.68-7.73,0-13.36,1.16-16.91,3.48-3.55,2.32-5.32,5.97-5.32,10.93,0,3.04.86,5.76,2.6,8.17,1.73,2.4,4.06,4.24,6.98,5.52,2.91,1.28,5.95,1.92,9.1,1.92,8.04,0,13.68-.56,16.91-1.68,3.23-1.12,4.85-3.36,4.85-6.73v-44.39c0-7.27-2.3-12.53-6.89-15.78-4.59-3.24-11.09-4.86-19.5-4.86-6.85,0-13.74,1.23-20.67,3.68-6.93,2.45-12.58,5.42-16.93,8.9v-31.44c4.06-2.54,10.36-4.92,18.89-7.15,8.52-2.22,18.1-3.34,28.74-3.34,3.75,0,7.9.32,12.43.95,4.53.64,9.07,1.79,13.61,3.45,4.53,1.67,8.72,4.09,12.55,7.27,3.83,3.18,6.92,7.23,9.27,12.15,2.35,4.93,3.52,11.04,3.52,18.35l-.24,57.01c0,6.89-2.29,12.45-6.86,16.69-4.58,4.24-11.16,7.33-19.75,9.25-8.6,1.92-18.96,2.88-31.1,2.88Z"/>
      <path class="cls-2" d="M923.8,168.81c-8.68,0-16.12-.93-22.31-2.77-6.19-1.85-12.02-3.9-17.49-6.15v-31.6c3.38,2.25,7.15,4.54,11.34,6.87,4.18,2.33,8.8,4.22,13.87,5.67,5.06,1.45,10.41,2.17,16.04,2.17s9.85-1,12.18-3.02c2.33-2.01,3.5-4.46,3.5-7.36,0-2.73-1.21-4.94-3.62-6.63-2.41-1.69-5.55-3.09-9.41-4.22-3.86-1.12-7.96-2.17-12.3-3.14-3.86-.8-7.72-2.05-11.58-3.74-3.86-1.69-7.32-3.98-10.37-6.87-3.06-2.89-5.51-6.47-7.36-10.73-1.85-4.26-2.77-9.44-2.77-15.56,0-7.88,1.53-14.43,4.58-19.66,3.05-5.22,7.07-9.44,12.06-12.66,4.98-3.21,10.37-5.51,16.16-6.87,5.79-1.36,11.41-1.97,16.88-1.81,9.97.32,17.89,1.41,23.76,3.26,5.87,1.85,11.22,4.22,16.04,7.12v28.22c-5.47-3.05-10.9-5.91-16.28-8.56-5.39-2.65-11.54-3.98-18.45-3.98-6.27,0-10.77.96-13.51,2.89-2.74,1.93-4.1,4.5-4.1,7.72s.92,5.47,2.77,7.24c1.85,1.77,4.3,3.18,7.36,4.22,3.05,1.05,6.43,2.05,10.13,3.01,4.02.96,8.16,2.13,12.42,3.5,4.26,1.37,8.28,3.3,12.06,5.79,3.78,2.49,6.83,5.95,9.17,10.37,2.33,4.42,3.5,10.25,3.5,17.49-.16,9.81-2.82,17.65-7.96,23.52-5.15,5.87-11.78,10.05-19.9,12.54-8.12,2.49-16.92,3.74-26.41,3.74Z"/>
      <path class="cls-2" d="M1051.45,169.44c-12.27,0-23.12-2.54-32.56-7.63-9.44-5.08-16.79-12.35-22.03-21.79-5.25-9.44-7.87-20.7-7.87-33.77,0-21.31,5.28-37.81,15.86-49.51,10.57-11.7,25.7-17.55,45.4-17.55,13.56,0,24.49,2.91,32.81,8.72,8.31,5.81,14.41,14.28,18.28,25.42,3.87,11.14,5.73,24.69,5.57,40.67h-93.21l-3.87-23h67.31l-5.33,11.38c-.16-13.07-2.02-22.27-5.57-27.6-3.55-5.33-9.36-7.99-17.43-7.99-4.52,0-8.59,1.13-12.23,3.39-3.63,2.26-6.46,6.01-8.47,11.26-2.02,5.25-3.03,12.47-3.03,21.67,0,11.62,2.78,20.58,8.35,26.87,5.57,6.29,14.48,9.44,26.75,9.44,4.52,0,9-.52,13.44-1.57,4.44-1.05,8.59-2.3,12.47-3.75s7.18-2.74,9.93-3.87v30.99c-5.81,2.42-12.31,4.4-19.49,5.93-7.18,1.53-15.54,2.3-25.06,2.3Z"/>
      <path class="cls-2" d="M1146.17,25.69v-14.37h-5.71v-3.48h15.36v3.48h-5.71v14.37h-3.94ZM1158.59,25.69V7.84h3.94l4.93,6.97,4.93-6.97h3.94v17.85h-3.94v-12.12l-4.93,6.86-4.93-6.86v12.12h-3.94Z"/>
      <path class="cls-1" d="M861.37,138.99l-47.11-81.54c-7.7-13.33-26.94-13.33-34.64,0l-47.11,81.54c-7.71,13.34,1.92,30.01,17.31,30.01h94.23c15.4,0,25.02-16.67,17.32-30.01ZM828.48,142h-62.45c-2.31,0-3.75-2.5-2.6-4.5l31.23-54.08c1.15-2,4.04-2,5.19,0l31.22,54.08c1.16,2-.29,4.5-2.59,4.5Z"/>
    </g>
  </g>
</svg>